<?xml version="1.0" encoding="utf-8"?>
<!-- Generator: Adobe Illustrator 27.0.0, SVG Export Plug-In . SVG Version: 6.00 Build 0)  -->
<svg version="1.1" id="Capa_1" xmlns="http://www.w3.org/2000/svg" xmlns:xlink="http://www.w3.org/1999/xlink" x="0px" y="0px"
	 viewBox="0 0 566.9 566.9" style="enable-background:new 0 0 566.9 566.9;" xml:space="preserve">
<style type="text/css">
	.st0{fill:#E61F84;}
	.st1{fill:#00B4EC;}
	.st2{fill:#1D1D1B;}
	.st3{fill:#FFFFFF;}
	.st4{fill:#40B2E6;}
</style>
<g>
	<g>
		<path class="st0" d="M63.1,264.5c-4.6-6.6-7.6-12.5-9.5-18.7c-2.9-9.5-1.5-19,4.2-28.2c1.9-3.1,4.2-5.8,6.9-8H37.4
			c0,0-0.1,0-0.1,0.1v129.4c0,0,0,0.1,0.1,0.1h43.2v-53.8c0,0,0,0,0,0C73.7,278.2,68,271.5,63.1,264.5z"/>
		<path class="st0" d="M140.9,209.5c0,0-6.8,0-10.2,1c-7.8,2.1-12.1,8.7-18.2,17.9c-0.4,0.6-1.4,0.6-1.7-0.1
			c-1.1-2.3-3.2-6.4-4.7-8.4c-11-14.6-32.5-13.8-41.8,1.6c-4.2,6.9-5.8,14.2-3.4,22.1c1.8,6,4.9,11.4,8.5,16.6
			c7.3,10.5,16.2,19.7,25.7,28.3c4.9,4.5,10,8.7,15.1,13.1c0.7,0.6,1.7,0.6,2.4,0.1c0,0,0,0,0,0c10.3-8.1,20-16.8,28.9-26.5V339
			h43.3V209.5H140.9z"/>
	</g>
	<path class="st0" d="M240.6,209.6l42,0L329,338.3l-39,0l-5.8-17.7l-45.7,0l-5.8,17.7l-38.3,0L240.6,209.6z M273.7,287.8l-12.3-38.6
		l-12.5,38.6L273.7,287.8z"/>
	<path class="st0" d="M333,209.6l59.7,0c27.1,0,47.6,19.4,47.6,45.3c0,18.1-10.4,32.7-26.3,39.4l0.4,0.6c4.9,6.7,11.6,9.9,20.5,9.9
		l6.3,0l0,33.6l-10.3,0c-24.1,0-40.7-8.9-50.2-27l-6.7-12.9l-5.4,0l0,39.9l-35.6,0L333,209.6z M368.7,243.1l0,24.3l23.3,0
		c6.7,0,11.8-5.2,11.7-12.1c0-6.9-5-12.1-11.8-12.1L368.7,243.1z"/>
	<path class="st0" d="M478.8,295.9l-47.5-86.4l40.5,0l25.2,48.7l12.3-23.9c5.6-11,7.1-18.5,7.1-24.8l37.9,0
		c0,11.6-3.3,19.4-11.7,34.7l-28.1,51.7l0,42.4l-35.6,0L478.8,295.9z"/>
	<g>
		<path class="st4" d="M287.4,381.4c0-18.1,14.1-31.9,32.8-31.9c16.4,0,29.4,10.7,31.8,25.6h-18.1c-1.9-5.5-7.2-9.2-13.7-9.2
			c-8.7,0-15.3,6.6-15.3,15.5s6.6,15.5,15.3,15.5c6.4,0,11.8-3.7,13.7-9.2H352c-2.4,14.9-15.4,25.6-31.8,25.6
			C301.5,413.3,287.4,399.6,287.4,381.4z"/>
		<path class="st4" d="M356.6,350.6h28.6c13,0,22.8,9.3,22.8,21.7c0,8.7-5,15.6-12.6,18.9l0.2,0.3c2.3,3.2,5.5,4.7,9.8,4.7h3v16.1
			h-4.9c-11.5,0-19.5-4.3-24-13l-3.2-6.2h-2.6v19.1h-17.1V350.6z M373.7,366.7v11.6h11.2c3.2,0,5.6-2.5,5.6-5.8
			c0-3.3-2.4-5.8-5.6-5.8H373.7z"/>
		<path class="st4" d="M411.9,388.1v-37.5H429v37.3c0,5.2,3.8,9,9,9c5.2,0,9-3.8,9-9v-37.3h17.1v37.5c0,14.4-11.3,25.2-26.1,25.2
			C423.2,413.3,411.9,402.5,411.9,388.1z"/>
		<path class="st4" d="M468.3,400l25.4-33.3h-25v-16.1h48.5v12.2l-25.4,33.3h26v16.1h-49.5V400z"/>
	</g>
	<g>
		<g>
			<path d="M150.6,383.7c0-4.7,3.7-8.3,8.5-8.3c4,0,7.3,2.5,8.1,6.1h-2.9c-0.7-2.1-2.7-3.4-5.1-3.4c-3.2,0-5.6,2.4-5.6,5.7
				c0,3.2,2.4,5.7,5.6,5.7c2.4,0,4.4-1.4,5.1-3.4h2.9c-0.8,3.6-4,6.1-8.1,6.1C154.2,392,150.6,388.4,150.6,383.7z"/>
			<path d="M168.9,385.8c0-3.6,2.5-6.2,5.9-6.2c1.8,0,3.2,0.7,4.2,2v-1.7h2.6v8.3c0,0.7,0.4,1.1,1.1,1.1h0.2v2.5h-0.7
				c-1.6,0-2.7-0.7-3-1.9c-1,1.4-2.5,2.2-4.3,2.2C171.4,392,168.9,389.3,168.9,385.8z M178.9,385.8c0-2.1-1.6-3.7-3.7-3.7
				c-2.1,0-3.7,1.6-3.7,3.7c0,2.1,1.6,3.7,3.7,3.7C177.4,389.5,178.9,387.9,178.9,385.8z"/>
			<path d="M184.8,379.8h2.6v1.5c1-1.2,2.3-1.8,4-1.8c2.8,0,4.7,1.9,4.7,4.7v3.9c0,0.7,0.4,1.1,1.1,1.1h0.2v2.5h-0.7
				c-2.1,0-3.2-1.1-3.2-3v-3.6c0-1.8-1.2-3-3-3c-1.9,0-3.2,1.2-3.2,3.1v6.6h-2.6V379.8z"/>
			<path d="M198.6,385.8c0-3.6,2.5-6.2,5.9-6.2c1.8,0,3.2,0.7,4.2,2v-6.6h2.6v13.2c0,0.7,0.4,1.1,1.1,1.1h0.2v2.5h-0.7
				c-1.6,0-2.7-0.7-3-1.9c-1,1.4-2.5,2.2-4.3,2.2C201.1,392,198.6,389.3,198.6,385.8z M208.7,385.8c0-2.1-1.6-3.7-3.7-3.7
				c-2.1,0-3.7,1.6-3.7,3.7c0,2.1,1.6,3.7,3.7,3.7C207.1,389.5,208.7,387.9,208.7,385.8z"/>
			<path d="M214.3,376.2c0-1,0.7-1.7,1.7-1.7c1,0,1.7,0.7,1.7,1.7c0,0.9-0.7,1.7-1.7,1.7C215,377.9,214.3,377.2,214.3,376.2z
				 M214.6,379.8h2.6v11.9h-2.6V379.8z"/>
			<path d="M219.7,385.8c0-3.6,2.5-6.2,5.9-6.2c1.8,0,3.2,0.7,4.2,2v-6.6h2.6v13.2c0,0.7,0.4,1.1,1.1,1.1h0.2v2.5h-0.7
				c-1.6,0-2.7-0.7-3-1.9c-1,1.4-2.5,2.2-4.3,2.2C222.2,392,219.7,389.3,219.7,385.8z M229.7,385.8c0-2.1-1.6-3.7-3.7-3.7
				c-2.1,0-3.7,1.6-3.7,3.7c0,2.1,1.6,3.7,3.7,3.7C228.2,389.5,229.7,387.9,229.7,385.8z"/>
			<path d="M235,385.8c0-3.6,2.5-6.2,5.9-6.2c1.8,0,3.2,0.7,4.2,2v-1.7h2.6v8.3c0,0.7,0.4,1.1,1.1,1.1h0.2v2.5h-0.7
				c-1.6,0-2.7-0.7-3-1.9c-1,1.4-2.5,2.2-4.3,2.2C237.5,392,235,389.3,235,385.8z M245.1,385.8c0-2.1-1.6-3.7-3.7-3.7
				c-2.1,0-3.7,1.6-3.7,3.7c0,2.1,1.6,3.7,3.7,3.7C243.5,389.5,245.1,387.9,245.1,385.8z"/>
			<path d="M252,388.1v-5.9h-2v-2.4h1.2c0.6,0,0.9-0.3,0.9-0.9v-2.3h2.5v3.2h2.9v2.4h-2.9v5.4c0,1.1,0.7,1.7,1.8,1.7h1.2v2.4H256
				C253.4,391.7,252,390.4,252,388.1z"/>
			<path d="M259,385.8c0-3.6,2.5-6.2,5.9-6.2c1.8,0,3.2,0.7,4.2,2v-1.7h2.6v8.3c0,0.7,0.4,1.1,1.1,1.1h0.2v2.5h-0.7
				c-1.6,0-2.7-0.7-3-1.9c-1,1.4-2.5,2.2-4.3,2.2C261.5,392,259,389.3,259,385.8z M269.1,385.8c0-2.1-1.6-3.7-3.7-3.7
				c-2.1,0-3.7,1.6-3.7,3.7c0,2.1,1.6,3.7,3.7,3.7C267.5,389.5,269.1,387.9,269.1,385.8z"/>
			<path d="M160.2,407.1c0-3.6,2.5-6.2,5.9-6.2c1.8,0,3.2,0.7,4.2,2v-1.7h2.6v8.3c0,0.7,0.4,1.1,1.1,1.1h0.2v2.5h-0.7
				c-1.6,0-2.7-0.7-3-1.9c-1,1.4-2.5,2.2-4.3,2.2C162.7,413.3,160.2,410.7,160.2,407.1z M170.2,407.1c0-2.1-1.6-3.7-3.7-3.7
				c-2.1,0-3.7,1.6-3.7,3.7c0,2.1,1.6,3.7,3.7,3.7C168.6,410.8,170.2,409.2,170.2,407.1z"/>
			<path d="M182.7,403.4c-0.6-0.4-1-1.1-1-1.8c0-1,0.7-1.7,1.8-1.7c1.1,0,1.8,0.7,1.8,1.6l7.8,0.9v0.6c-1.4,2-2.1,3.7-2.1,5.2
				c0,1.5,0.8,2.4,2.1,2.4h0.5v2.5h-0.7c-3,0-4.6-1.7-4.6-4.6c0-1.3,0.4-2.6,1.1-4l-4.3-0.6l-1.7,9.1h-2.6L182.7,403.4z"/>
			<path d="M194.6,407.1c0-3.6,2.7-6.2,6.4-6.2c3.6,0,6.4,2.7,6.4,6.3c0,0.3,0,0.7-0.1,1h-9.9c0.4,1.7,1.8,2.9,3.7,2.9
				c1.4,0,2.6-0.6,3.2-1.5h2.9c-1,2.3-3.3,3.9-6.1,3.9C197.4,413.3,194.6,410.7,194.6,407.1z M197.5,406h7.1
				c-0.4-1.6-1.8-2.7-3.6-2.7C199.3,403.2,197.9,404.3,197.5,406z"/>
			<path d="M208.9,407.1c0-3.6,2.7-6.2,6.4-6.2c3.1,0,5.6,2,6,4.8h-2.8c-0.4-1.3-1.7-2.2-3.3-2.2c-2.1,0-3.7,1.6-3.7,3.7
				c0,2.1,1.6,3.7,3.7,3.7c1.6,0,2.8-0.9,3.3-2.2h2.8c-0.5,2.8-2.9,4.8-6,4.8C211.7,413.3,208.9,410.7,208.9,407.1z"/>
			<path d="M224.3,409.4v-5.9h-2v-2.4h1.2c0.6,0,0.9-0.3,0.9-0.9v-2.3h2.5v3.2h2.9v2.4h-2.9v5.4c0,1.1,0.7,1.7,1.8,1.7h1.2v2.4h-1.6
				C225.7,413.1,224.3,411.8,224.3,409.4z"/>
			<path d="M231.3,407.1c0-3.6,2.7-6.2,6.4-6.2c3.6,0,6.4,2.7,6.4,6.2c0,3.6-2.8,6.2-6.4,6.2C234,413.3,231.3,410.7,231.3,407.1z
				 M241.3,407.1c0-2.1-1.6-3.7-3.7-3.7s-3.7,1.6-3.7,3.7c0,2.1,1.6,3.7,3.7,3.7S241.3,409.2,241.3,407.1z"/>
			<path d="M247.1,403.4c-0.6-0.4-1-1.1-1-1.8c0-1,0.7-1.7,1.8-1.7c1.1,0,1.8,0.7,1.8,1.6l7.8,0.9v0.6c-1.4,2-2.1,3.7-2.1,5.2
				c0,1.5,0.8,2.4,2.1,2.4h0.5v2.5h-0.7c-3,0-4.6-1.7-4.6-4.6c0-1.3,0.4-2.6,1.1-4l-4.3-0.6l-1.7,9.1h-2.6L247.1,403.4z"/>
			<path d="M259,407.1c0-3.6,2.5-6.2,5.9-6.2c1.8,0,3.2,0.7,4.2,2v-1.7h2.6v8.3c0,0.7,0.4,1.1,1.1,1.1h0.2v2.5h-0.7
				c-1.6,0-2.7-0.7-3-1.9c-1,1.4-2.5,2.2-4.3,2.2C261.5,413.3,259,410.7,259,407.1z M269.1,407.1c0-2.1-1.6-3.7-3.7-3.7
				c-2.1,0-3.7,1.6-3.7,3.7c0,2.1,1.6,3.7,3.7,3.7C267.5,410.8,269.1,409.2,269.1,407.1z"/>
		</g>
	</g>
</g>
</svg>
